<?xml version="1.0" standalone="no"?>
<!DOCTYPE svg PUBLIC "-//W3C//DTD SVG 20010904//EN"
 "http://www.w3.org/TR/2001/REC-SVG-20010904/DTD/svg10.dtd">
<svg version="1.0" xmlns="http://www.w3.org/2000/svg"
 width="410.000000pt" height="410.000000pt" viewBox="0 0 410.000000 410.000000"
 preserveAspectRatio="xMidYMid meet">
<metadata>
Created by potrace 1.11, written by Peter Selinger 2001-2013
</metadata>
<g transform="translate(0.000000,410.000000) scale(0.100000,-0.100000)"
fill="#000000" stroke="none">
<path d="M0 2050 l0 -1820 2050 0 2050 0 0 1820 0 1820 -2050 0 -2050 0 0
-1820z m2344 1550 c303 -60 550 -193 772 -414 224 -224 354 -469 416 -781 31
-155 31 -395 0 -550 -62 -312 -192 -557 -416 -781 -224 -224 -469 -354 -781
-416 -155 -31 -395 -31 -550 0 -312 62 -557 192 -781 416 -224 224 -354 469
-416 781 -31 155 -31 395 0 550 62 312 192 557 416 781 256 256 545 393 926
438 76 9 319 -5 414 -24z"/>
<path d="M1845 3556 c-381 -64 -715 -265 -940 -565 -119 -158 -217 -379 -262
-591 -25 -120 -25 -420 0 -540 112 -524 469 -932 960 -1095 177 -59 251 -70
457 -70 207 0 280 11 459 71 425 141 764 481 906 907 59 177 70 251 70 457 0
206 -11 280 -70 457 -91 273 -272 524 -504 698 -154 116 -376 215 -581 260
-103 22 -389 29 -495 11z m335 -628 c90 -15 180 -60 248 -123 73 -67 111 -140
124 -239 28 -196 -51 -350 -242 -471 -142 -89 -179 -142 -189 -265 l-6 -75
-121 -3 -121 -3 -6 53 c-7 59 5 167 23 213 24 62 88 132 180 195 165 112 198
154 207 260 12 127 -59 215 -193 239 -154 28 -278 -41 -318 -178 -9 -30 -22
-58 -29 -63 -14 -9 -198 -11 -221 -2 -21 8 -20 35 3 122 48 182 189 312 372
341 130 21 160 21 289 -1z m-110 -1423 c52 -27 80 -75 80 -136 0 -96 -55 -149
-155 -149 -99 0 -155 53 -155 145 0 92 62 155 153 155 26 0 61 -7 77 -15z"/>
</g>
</svg>
